<?xml version="1.0" encoding="utf-8"?>
<!-- Generator: Adobe Illustrator 17.1.0, SVG Export Plug-In . SVG Version: 6.00 Build 0)  -->
<!DOCTYPE svg PUBLIC "-//W3C//DTD SVG 1.1//EN" "http://www.w3.org/Graphics/SVG/1.1/DTD/svg11.dtd">
<svg version="1.1" id="Layer_1" xmlns="http://www.w3.org/2000/svg" xmlns:xlink="http://www.w3.org/1999/xlink" x="0px" y="0px"
	 viewBox="0 0 80 80" enable-background="new 0 0 80 80" xml:space="preserve">
<path d="M39.5,78.7c-19.9,0-36.1-16.2-36.1-36.1c0-10.3,4.4-20.1,12.1-27c2.1-1.9,5.4-1.7,7.3,0.4c1.9,2.1,1.7,5.4-0.4,7.3
	c-5.5,4.9-8.7,11.9-8.7,19.3c0,14.2,11.6,25.8,25.8,25.8c14.2,0,25.8-11.6,25.8-25.8c0-7.4-3.2-14.4-8.6-19.3
	c-2.1-1.9-2.3-5.1-0.4-7.3c1.9-2.1,5.2-2.3,7.3-0.4c7.7,6.8,12.1,16.7,12.1,27C75.5,62.5,59.3,78.7,39.5,78.7z M44.6,32.3V6.5
	c0-2.8-2.3-5.2-5.2-5.2s-5.2,2.3-5.2,5.2v25.8c0,2.8,2.3,5.2,5.2,5.2S44.6,35.1,44.6,32.3z"/>
</svg>
